<svg width="120" height="120" viewBox="0 0 120 120" fill="none" xmlns="http://www.w3.org/2000/svg">
<path fill-rule="evenodd" clip-rule="evenodd" d="M26 62C39.2548 62 50 51.2548 50 38C50 24.7452 39.2548 14 26 14C12.7452 14 2 24.7452 2 38C2 51.2548 12.7452 62 26 62Z" fill="#FFDE17"/>
<rect width="120" height="120" fill="#D8D8D8" fill-opacity="0.01"/>
<path fill-rule="evenodd" clip-rule="evenodd" d="M104.141 25.625H99.4531V15.8594C99.4531 12.6285 96.8246 10 93.5938 10H26.4062C23.1754 10 20.5469 12.6285 20.5469 15.8594V25.625H15.8594C12.6285 25.625 10 28.2535 10 31.4844V87.734C10 90.9648 12.6285 93.5934 15.8594 93.5934H50.2344V98.2805H46.5187C43.2879 98.2805 40.6594 100.909 40.6594 104.14V108.047C40.6594 109.126 41.5338 110 42.6125 110H77.3877C78.4664 110 79.3408 109.126 79.3408 108.047V104.14C79.3408 100.909 76.7123 98.2805 73.4814 98.2805H69.7656V93.5934H104.141C107.371 93.5934 110 90.9648 110 87.734V31.4844C110 28.2535 107.371 25.625 104.141 25.625ZM104.141 29.5312C105.218 29.5312 106.094 30.4074 106.094 31.4844V76.4059H99.4531V29.5312H104.141ZM93.5938 13.9062H26.4062C25.3293 13.9062 24.4531 14.7824 24.4531 15.8594V25.625H95.5469V15.8594C95.5469 14.7824 94.6707 13.9062 93.5938 13.9062ZM15.8594 29.5312H20.5469V44.1777C20.5469 45.2564 21.4213 46.1309 22.5 46.1309C23.5787 46.1309 24.4531 45.2564 24.4531 44.1777V29.5312H95.5469V76.4059H85.5859V69.9695C85.5859 68.8908 84.7115 68.0164 83.6328 68.0164H81.0916C80.6449 66.4785 80.032 65 79.259 63.5951L81.0568 61.7975C81.8195 61.0348 81.8195 59.798 81.0568 59.0352L75.1272 53.1055C74.3645 52.343 73.1277 52.343 72.3648 53.1055L70.5672 54.9033C69.1625 54.1303 67.6838 53.5174 66.1459 53.0709V50.5297C66.1459 49.451 65.2715 48.5766 64.1928 48.5766H55.8068C54.7281 48.5766 53.8537 49.451 53.8537 50.5297V53.0709C52.3158 53.5176 50.8373 54.1303 49.4324 54.9033L47.6348 53.1055C46.8721 52.343 45.6353 52.343 44.8725 53.1055L38.9428 59.0352C38.1801 59.7978 38.1801 61.0346 38.9428 61.7975L40.7406 63.5951C39.9676 64.9998 39.3547 66.4785 38.908 68.0164H36.3672C35.2885 68.0164 34.4141 68.8908 34.4141 69.9695V76.4059H24.4531V61.7559C24.4531 60.6771 23.5787 59.8027 22.5 59.8027C21.4213 59.8027 20.5469 60.6771 20.5469 61.7559V76.4059H13.9062V31.4844C13.9062 30.4074 14.7824 29.5312 15.8594 29.5312ZM43.0863 60.4161L44.5791 61.9089C45.2309 62.5606 45.3383 63.5794 44.8367 64.3526C43.6383 66.2009 42.7982 68.2276 42.34 70.3767C42.1479 71.2782 41.3516 71.9226 40.4299 71.9226H38.3203V76.4058H50.4967C50.3229 75.6733 50.2332 74.9206 50.2332 74.1624C50.2332 68.777 54.6146 64.3956 60 64.3956C65.3854 64.3956 69.7668 68.7769 69.7668 74.1624C69.7668 74.9206 69.6771 75.6733 69.5033 76.4058H81.6797V71.9226H79.5705C78.6488 71.9226 77.8525 71.278 77.6604 70.3767C77.2021 68.2278 76.3621 66.2011 75.1637 64.3526C74.6621 63.5792 74.7697 62.5606 75.4213 61.9089L76.9141 60.4161L73.7465 57.2485L72.2537 58.7413C71.602 59.3929 70.5834 59.5003 69.81 58.9989C67.9615 57.8003 65.9348 56.9604 63.7859 56.5022C62.8844 56.3101 62.24 55.5138 62.24 54.5921V52.4823H57.7604V54.5921C57.7604 55.5138 57.116 56.3101 56.2145 56.5022C54.0654 56.9604 52.0387 57.8005 50.1904 58.9989C49.417 59.5003 48.3984 59.3927 47.7467 58.7413L46.2539 57.2485L43.0863 60.4161ZM54.1394 74.1625C54.1394 70.9311 56.7683 68.302 60 68.302C63.2316 68.302 65.8605 70.9311 65.8605 74.1625C65.8605 74.9338 65.7044 75.6957 65.4082 76.4059H54.5918C54.2955 75.6957 54.1394 74.9338 54.1394 74.1625ZM75.4342 106.094V104.14C75.4342 103.063 74.5582 102.187 73.4813 102.187H46.5186C45.4416 102.187 44.5655 103.063 44.5655 104.14V106.094H75.4342ZM54.1406 98.2803V93.5932H65.8594V98.2803H54.1406ZM13.9062 87.7338C13.9062 88.8108 14.7824 89.6869 15.8594 89.6869H104.141C105.218 89.6869 106.094 88.8108 106.094 87.7338V80.3119H13.9062V87.7338ZM65.8594 21.7188H86.9531C88.0318 21.7188 88.9062 20.8443 88.9062 19.7656C88.9062 18.6869 88.0318 17.8125 86.9531 17.8125H65.8594C64.7807 17.8125 63.9062 18.6869 63.9062 19.7656C63.9062 20.8443 64.7807 21.7188 65.8594 21.7188ZM43.0215 21.1465C42.6582 21.5098 42.1543 21.7188 41.6406 21.7188C41.127 21.7188 40.623 21.5098 40.2598 21.1465C39.8965 20.7832 39.6875 20.2793 39.6875 19.7656C39.6875 19.252 39.8965 18.748 40.2598 18.3848C40.623 18.0215 41.127 17.8125 41.6406 17.8125C42.1543 17.8125 42.6582 18.0215 43.0215 18.3848C43.3848 18.748 43.5938 19.252 43.5938 19.7656C43.5938 20.2793 43.3848 20.7832 43.0215 21.1465ZM33.0469 21.7188C33.5605 21.7188 34.0645 21.5098 34.4277 21.1465C34.791 20.7832 35 20.2793 35 19.7656C35 19.252 34.791 18.748 34.4277 18.3848C34.0645 18.0215 33.5605 17.8125 33.0469 17.8125C32.5332 17.8125 32.0293 18.0215 31.666 18.3848C31.3027 18.748 31.0938 19.252 31.0938 19.7656C31.0938 20.2793 31.3027 20.7832 31.666 21.1465C32.0293 21.5098 32.5332 21.7188 33.0469 21.7188ZM51.6152 21.1465C51.252 21.5098 50.748 21.7188 50.2344 21.7188C49.7207 21.7188 49.2168 21.5098 48.8535 21.1465C48.4902 20.7832 48.2812 20.2793 48.2812 19.7656C48.2812 19.252 48.4902 18.748 48.8535 18.3848C49.2168 18.0215 49.7207 17.8125 50.2344 17.8125C50.748 17.8125 51.252 18.0215 51.6152 18.3848C51.9785 18.748 52.1875 19.252 52.1875 19.7656C52.1875 20.2793 51.9785 20.7832 51.6152 21.1465ZM31.875 38.9057H36.523C37.6018 38.9057 38.4762 38.0313 38.4762 36.9526C38.4762 35.8738 37.6018 34.9994 36.523 34.9994H31.875C30.7963 34.9994 29.9219 35.8738 29.9219 36.9526C29.9219 38.0313 30.7963 38.9057 31.875 38.9057ZM63.0347 38.9057H45.1171C44.0384 38.9057 43.164 38.0313 43.164 36.9526C43.164 35.8738 44.0384 34.9994 45.1171 34.9994H63.0347C64.1134 34.9994 64.9878 35.8738 64.9878 36.9526C64.9878 38.0313 64.1134 38.9057 63.0347 38.9057ZM31.875 48.2806H43.2031C44.2818 48.2806 45.1562 47.4062 45.1562 46.3275C45.1562 45.2488 44.2818 44.3744 43.2031 44.3744H31.875C30.7963 44.3744 29.9219 45.2488 29.9219 46.3275C29.9219 47.4062 30.7963 48.2806 31.875 48.2806ZM88.1252 38.9057H71.6284C70.5496 38.9057 69.6752 38.0313 69.6752 36.9526C69.6752 35.8738 70.5496 34.9994 71.6284 34.9994H88.1252C89.2039 34.9994 90.0784 35.8738 90.0784 36.9526C90.0784 38.0313 89.2039 38.9057 88.1252 38.9057ZM88.1252 44.3744H74.7582C73.6795 44.3744 72.8051 45.2488 72.8051 46.3275C72.8051 47.4062 73.6795 48.2806 74.7582 48.2806H88.1252C89.2039 48.2806 90.0784 47.4062 90.0784 46.3275C90.0784 45.2488 89.2039 44.3744 88.1252 44.3744ZM23.8809 54.3478C23.5176 54.711 23.0137 54.92 22.5 54.92C21.9863 54.92 21.4824 54.711 21.1191 54.3478C20.7559 53.9845 20.5469 53.4806 20.5469 52.9669C20.5469 52.4532 20.7559 51.9493 21.1191 51.586C21.4824 51.2228 21.9863 51.0138 22.5 51.0138C23.0137 51.0138 23.5176 51.2228 23.8809 51.586C24.2441 51.9493 24.4531 52.4532 24.4531 52.9669C24.4531 53.4806 24.2441 53.9845 23.8809 54.3478Z" fill="black"/>
<mask id="mask0" mask-type="alpha" maskUnits="userSpaceOnUse" x="10" y="10" width="100" height="100">
<path fill-rule="evenodd" clip-rule="evenodd" d="M104.141 25.625H99.4531V15.8594C99.4531 12.6285 96.8246 10 93.5938 10H26.4062C23.1754 10 20.5469 12.6285 20.5469 15.8594V25.625H15.8594C12.6285 25.625 10 28.2535 10 31.4844V87.734C10 90.9648 12.6285 93.5934 15.8594 93.5934H50.2344V98.2805H46.5187C43.2879 98.2805 40.6594 100.909 40.6594 104.14V108.047C40.6594 109.126 41.5338 110 42.6125 110H77.3877C78.4664 110 79.3408 109.126 79.3408 108.047V104.14C79.3408 100.909 76.7123 98.2805 73.4814 98.2805H69.7656V93.5934H104.141C107.371 93.5934 110 90.9648 110 87.734V31.4844C110 28.2535 107.371 25.625 104.141 25.625ZM104.141 29.5312C105.218 29.5312 106.094 30.4074 106.094 31.4844V76.4059H99.4531V29.5312H104.141ZM93.5938 13.9062H26.4062C25.3293 13.9062 24.4531 14.7824 24.4531 15.8594V25.625H95.5469V15.8594C95.5469 14.7824 94.6707 13.9062 93.5938 13.9062ZM15.8594 29.5312H20.5469V44.1777C20.5469 45.2564 21.4213 46.1309 22.5 46.1309C23.5787 46.1309 24.4531 45.2564 24.4531 44.1777V29.5312H95.5469V76.4059H85.5859V69.9695C85.5859 68.8908 84.7115 68.0164 83.6328 68.0164H81.0916C80.6449 66.4785 80.032 65 79.259 63.5951L81.0568 61.7975C81.8195 61.0348 81.8195 59.798 81.0568 59.0352L75.1272 53.1055C74.3645 52.343 73.1277 52.343 72.3648 53.1055L70.5672 54.9033C69.1625 54.1303 67.6838 53.5174 66.1459 53.0709V50.5297C66.1459 49.451 65.2715 48.5766 64.1928 48.5766H55.8068C54.7281 48.5766 53.8537 49.451 53.8537 50.5297V53.0709C52.3158 53.5176 50.8373 54.1303 49.4324 54.9033L47.6348 53.1055C46.8721 52.343 45.6353 52.343 44.8725 53.1055L38.9428 59.0352C38.1801 59.7978 38.1801 61.0346 38.9428 61.7975L40.7406 63.5951C39.9676 64.9998 39.3547 66.4785 38.908 68.0164H36.3672C35.2885 68.0164 34.4141 68.8908 34.4141 69.9695V76.4059H24.4531V61.7559C24.4531 60.6771 23.5787 59.8027 22.5 59.8027C21.4213 59.8027 20.5469 60.6771 20.5469 61.7559V76.4059H13.9062V31.4844C13.9062 30.4074 14.7824 29.5312 15.8594 29.5312ZM43.0863 60.4161L44.5791 61.9089C45.2309 62.5606 45.3383 63.5794 44.8367 64.3526C43.6383 66.2009 42.7982 68.2276 42.34 70.3767C42.1479 71.2782 41.3516 71.9226 40.4299 71.9226H38.3203V76.4058H50.4967C50.3229 75.6733 50.2332 74.9206 50.2332 74.1624C50.2332 68.777 54.6146 64.3956 60 64.3956C65.3854 64.3956 69.7668 68.7769 69.7668 74.1624C69.7668 74.9206 69.6771 75.6733 69.5033 76.4058H81.6797V71.9226H79.5705C78.6488 71.9226 77.8525 71.278 77.6604 70.3767C77.2021 68.2278 76.3621 66.2011 75.1637 64.3526C74.6621 63.5792 74.7697 62.5606 75.4213 61.9089L76.9141 60.4161L73.7465 57.2485L72.2537 58.7413C71.602 59.3929 70.5834 59.5003 69.81 58.9989C67.9615 57.8003 65.9348 56.9604 63.7859 56.5022C62.8844 56.3101 62.24 55.5138 62.24 54.5921V52.4823H57.7604V54.5921C57.7604 55.5138 57.116 56.3101 56.2145 56.5022C54.0654 56.9604 52.0387 57.8005 50.1904 58.9989C49.417 59.5003 48.3984 59.3927 47.7467 58.7413L46.2539 57.2485L43.0863 60.4161ZM54.1394 74.1625C54.1394 70.9311 56.7683 68.302 60 68.302C63.2316 68.302 65.8605 70.9311 65.8605 74.1625C65.8605 74.9338 65.7044 75.6957 65.4082 76.4059H54.5918C54.2955 75.6957 54.1394 74.9338 54.1394 74.1625ZM75.4342 106.094V104.14C75.4342 103.063 74.5582 102.187 73.4813 102.187H46.5186C45.4416 102.187 44.5655 103.063 44.5655 104.14V106.094H75.4342ZM54.1406 98.2803V93.5932H65.8594V98.2803H54.1406ZM13.9062 87.7338C13.9062 88.8108 14.7824 89.6869 15.8594 89.6869H104.141C105.218 89.6869 106.094 88.8108 106.094 87.7338V80.3119H13.9062V87.7338ZM65.8594 21.7188H86.9531C88.0318 21.7188 88.9062 20.8443 88.9062 19.7656C88.9062 18.6869 88.0318 17.8125 86.9531 17.8125H65.8594C64.7807 17.8125 63.9062 18.6869 63.9062 19.7656C63.9062 20.8443 64.7807 21.7188 65.8594 21.7188ZM43.0215 21.1465C42.6582 21.5098 42.1543 21.7188 41.6406 21.7188C41.127 21.7188 40.623 21.5098 40.2598 21.1465C39.8965 20.7832 39.6875 20.2793 39.6875 19.7656C39.6875 19.252 39.8965 18.748 40.2598 18.3848C40.623 18.0215 41.127 17.8125 41.6406 17.8125C42.1543 17.8125 42.6582 18.0215 43.0215 18.3848C43.3848 18.748 43.5938 19.252 43.5938 19.7656C43.5938 20.2793 43.3848 20.7832 43.0215 21.1465ZM33.0469 21.7188C33.5605 21.7188 34.0645 21.5098 34.4277 21.1465C34.791 20.7832 35 20.2793 35 19.7656C35 19.252 34.791 18.748 34.4277 18.3848C34.0645 18.0215 33.5605 17.8125 33.0469 17.8125C32.5332 17.8125 32.0293 18.0215 31.666 18.3848C31.3027 18.748 31.0938 19.252 31.0938 19.7656C31.0938 20.2793 31.3027 20.7832 31.666 21.1465C32.0293 21.5098 32.5332 21.7188 33.0469 21.7188ZM51.6152 21.1465C51.252 21.5098 50.748 21.7188 50.2344 21.7188C49.7207 21.7188 49.2168 21.5098 48.8535 21.1465C48.4902 20.7832 48.2812 20.2793 48.2812 19.7656C48.2812 19.252 48.4902 18.748 48.8535 18.3848C49.2168 18.0215 49.7207 17.8125 50.2344 17.8125C50.748 17.8125 51.252 18.0215 51.6152 18.3848C51.9785 18.748 52.1875 19.252 52.1875 19.7656C52.1875 20.2793 51.9785 20.7832 51.6152 21.1465ZM31.875 38.9057H36.523C37.6018 38.9057 38.4762 38.0313 38.4762 36.9526C38.4762 35.8738 37.6018 34.9994 36.523 34.9994H31.875C30.7963 34.9994 29.9219 35.8738 29.9219 36.9526C29.9219 38.0313 30.7963 38.9057 31.875 38.9057ZM63.0347 38.9057H45.1171C44.0384 38.9057 43.164 38.0313 43.164 36.9526C43.164 35.8738 44.0384 34.9994 45.1171 34.9994H63.0347C64.1134 34.9994 64.9878 35.8738 64.9878 36.9526C64.9878 38.0313 64.1134 38.9057 63.0347 38.9057ZM31.875 48.2806H43.2031C44.2818 48.2806 45.1562 47.4062 45.1562 46.3275C45.1562 45.2488 44.2818 44.3744 43.2031 44.3744H31.875C30.7963 44.3744 29.9219 45.2488 29.9219 46.3275C29.9219 47.4062 30.7963 48.2806 31.875 48.2806ZM88.1252 38.9057H71.6284C70.5496 38.9057 69.6752 38.0313 69.6752 36.9526C69.6752 35.8738 70.5496 34.9994 71.6284 34.9994H88.1252C89.2039 34.9994 90.0784 35.8738 90.0784 36.9526C90.0784 38.0313 89.2039 38.9057 88.1252 38.9057ZM88.1252 44.3744H74.7582C73.6795 44.3744 72.8051 45.2488 72.8051 46.3275C72.8051 47.4062 73.6795 48.2806 74.7582 48.2806H88.1252C89.2039 48.2806 90.0784 47.4062 90.0784 46.3275C90.0784 45.2488 89.2039 44.3744 88.1252 44.3744ZM23.8809 54.3478C23.5176 54.711 23.0137 54.92 22.5 54.92C21.9863 54.92 21.4824 54.711 21.1191 54.3478C20.7559 53.9845 20.5469 53.4806 20.5469 52.9669C20.5469 52.4532 20.7559 51.9493 21.1191 51.586C21.4824 51.2228 21.9863 51.0138 22.5 51.0138C23.0137 51.0138 23.5176 51.2228 23.8809 51.586C24.2441 51.9493 24.4531 52.4532 24.4531 52.9669C24.4531 53.4806 24.2441 53.9845 23.8809 54.3478Z" fill="white"/>
</mask>
<g mask="url(#mask0)">
<rect x="10" y="-10" width="120" height="120" fill="black"/>
</g>
</svg>
