<?xml version="1.0" encoding="utf-8"?>
<!-- Generator: Adobe Illustrator 25.0.0, SVG Export Plug-In . SVG Version: 6.00 Build 0)  -->
<svg version="1.1" id="Layer_1" xmlns="http://www.w3.org/2000/svg" xmlns:xlink="http://www.w3.org/1999/xlink" x="0px" y="0px"
	 viewBox="0 0 100 101" style="enable-background:new 0 0 100 101;" xml:space="preserve">
<style type="text/css">
	.st0{fill:#16C8C7;}
</style>
<path d="M31.9,20.7h6.5c0.5,0,0.9-0.4,0.9-0.8c0-0.5-0.4-0.8-0.9-0.8h-6.5c-0.5,0-0.9,0.4-0.9,0.8C31,20.4,31.4,20.7,31.9,20.7z"/>
<path d="M35.1,74.3c-1.6,0-3,1.2-3,2.7c0,1.5,1.3,2.7,3,2.7s3-1.2,3-2.7C38.1,75.5,36.8,74.3,35.1,74.3z M35.1,78.1
	c-0.6,0-1.1-0.5-1.1-1.1c0-0.6,0.5-1.1,1.1-1.1c0.6,0,1.1,0.5,1.1,1.1C36.3,77.6,35.8,78.1,35.1,78.1z"/>
<path class="st0" d="M23.8,35.3h11.5c0.5,0,0.9-0.4,0.9-0.8c0-0.5-0.4-0.8-0.9-0.8H23.8c-0.5,0-0.9,0.4-0.9,0.8
	C22.9,34.9,23.3,35.3,23.8,35.3z"/>
<path class="st0" d="M23.8,50.5h11.5c0.5,0,0.9-0.4,0.9-0.8c0-0.5-0.4-0.8-0.9-0.8H23.8c-0.5,0-0.9,0.4-0.9,0.8
	C22.9,50.1,23.3,50.5,23.8,50.5z"/>
<path class="st0" d="M40.1,51.9H23.8c-0.5,0-0.9,0.4-0.9,0.8c0,0.5,0.4,0.8,0.9,0.8h16.3c0.5,0,0.9-0.4,0.9-0.8
	C41,52.3,40.6,51.9,40.1,51.9z"/>
<path d="M84.1,49c0.5,0,0.9-0.4,0.9-0.8V26.5c0-0.5-0.4-0.8-0.9-0.8H55.3V19c0-1.9-1.7-3.5-3.8-3.5H18.8c-2.1,0-3.8,1.6-3.8,3.5v60
	c0,1.9,1.7,3.5,3.8,3.5h32.7c2.1,0,3.8-1.6,3.8-3.5V66.5h28.8c0.5,0,0.9-0.4,0.9-0.8V52.9c0-0.5-0.4-0.8-0.9-0.8H55.3V49H84.1z
	 M83.2,47.3H43.5V27.4h39.7V47.3z M42.6,52.1c-0.5,0-0.9,0.4-0.9,0.8v4.6H21V43.6h20.6v2.1H23.8c-0.5,0-0.9,0.4-0.9,0.8
	c0,0.5,0.4,0.8,0.9,0.8h17.9v0.7c0,0.5,0.4,0.8,0.9,0.8h6.7v3.1H42.6z M42.6,66.5h6.7v1.4H21v-5.7h20.6v3.4
	C41.7,66.1,42.1,66.5,42.6,66.5z M41.7,30.5H23.8c-0.5,0-0.9,0.4-0.9,0.8c0,0.5,0.4,0.8,0.9,0.8h17.9v6.8H21V28.5h20.6V30.5z
	 M18.8,17.2h32.7c1.1,0,2,0.8,2,1.8v4.4H16.8V19C16.8,18,17.7,17.2,18.8,17.2z M51.5,80.8H18.8c-1.1,0-2-0.8-2-1.8v-5.8h36.7V79
	C53.5,80,52.6,80.8,51.5,80.8z M53.5,71.5H16.8V25.1h36.7v0.6H42.6c-0.5,0-0.9,0.4-0.9,0.8v0.3H20.1c-0.5,0-0.9,0.4-0.9,0.8v12.1
	c0,0.5,0.4,0.8,0.9,0.8h21.5v1.3H20.1c-0.5,0-0.9,0.4-0.9,0.8v15.6c0,0.5,0.4,0.8,0.9,0.8h21.5v1.3H20.1c-0.5,0-0.9,0.4-0.9,0.8v7.4
	c0,0.5,0.4,0.8,0.9,0.8h30c0.5,0,0.9-0.4,0.9-0.8v-2.3h2.4V71.5z M83.2,64.8H43.5v-11h39.7V64.8z M53.5,52.1h-2.4V49h2.4V52.1z"/>
<path class="st0" d="M47.6,32.7h31.5c0.5,0,0.9-0.4,0.9-0.8c0-0.5-0.4-0.8-0.9-0.8H47.6c-0.5,0-0.9,0.4-0.9,0.8
	C46.7,32.3,47.1,32.7,47.6,32.7z"/>
<path class="st0" d="M47.6,37h15.9c0.5,0,0.9-0.4,0.9-0.8c0-0.5-0.4-0.8-0.9-0.8H47.6c-0.5,0-0.9,0.4-0.9,0.8
	C46.7,36.6,47.1,37,47.6,37z"/>
<path class="st0" d="M47.6,57.7h31.5c0.5,0,0.9-0.4,0.9-0.8c0-0.5-0.4-0.8-0.9-0.8H47.6c-0.5,0-0.9,0.4-0.9,0.8
	C46.7,57.3,47.1,57.7,47.6,57.7z"/>
<path class="st0" d="M47.6,62h15.9c0.5,0,0.9-0.4,0.9-0.8c0-0.5-0.4-0.8-0.9-0.8H47.6c-0.5,0-0.9,0.4-0.9,0.8
	C46.7,61.6,47.1,62,47.6,62z"/>
<path class="st0" d="M47.6,41.3h22.6c0.5,0,0.9-0.4,0.9-0.8c0-0.5-0.4-0.8-0.9-0.8H47.6c-0.5,0-0.9,0.4-0.9,0.8
	C46.7,40.9,47.1,41.3,47.6,41.3z"/>
<path class="st0" d="M33.2,64.2h-9.4c-0.5,0-0.9,0.4-0.9,0.8c0,0.5,0.4,0.8,0.9,0.8h9.4c0.5,0,0.9-0.4,0.9-0.8
	C34.1,64.6,33.7,64.2,33.2,64.2z"/>
</svg>
