<svg width="120" height="120" viewBox="0 0 120 120" fill="none" xmlns="http://www.w3.org/2000/svg">
<path fill-rule="evenodd" clip-rule="evenodd" d="M95.5 93C108.755 93 119.5 82.2548 119.5 69C119.5 55.7452 108.755 45 95.5 45C82.2452 45 71.5 55.7452 71.5 69C71.5 82.2548 82.2452 93 95.5 93Z" fill="#FFDE17"/>
<rect width="120" height="120" fill="#D8D8D8" fill-opacity="0.01"/>
<path fill-rule="evenodd" clip-rule="evenodd" d="M59.5568 109.998C59.7063 109.999 59.8559 110 60.0054 110L60.1582 110C60.2255 110 60.2928 110 60.3602 109.999C66.5835 109.955 72.3856 107.434 76.6977 102.902C81.045 98.3324 83.291 92.3517 83.0225 86.0635C83.0126 85.8392 83.008 85.6142 83.008 85.3967C83.008 76.9647 89.8683 70.1051 98.3011 70.1051C98.6093 70.1051 98.9214 70.1151 99.2281 70.1334C102.03 70.3004 104.804 69.2987 106.841 67.3845C108.872 65.4749 109.994 62.8915 110 60.1183V60C110 46.6447 104.8 34.0883 95.3562 24.6446C85.9125 15.201 73.3561 10 60.0001 10C46.8058 10 34.3577 15.0941 24.9491 24.3433C15.5528 33.5809 10.2465 45.9169 10.0085 59.0791C9.76436 72.5725 14.7868 85.2998 24.1496 94.9167C33.504 104.525 46.0787 109.881 59.5568 109.998ZM27.6874 27.1288C36.3612 18.6021 47.8366 13.9062 60.0001 13.9062C72.3132 13.9062 83.8885 18.7013 92.5936 27.4072C101.3 36.1124 106.094 47.6877 106.094 60V60.103C106.09 61.7975 105.405 63.3722 104.164 64.538C102.89 65.7365 101.22 66.34 99.4608 66.234C99.0771 66.2111 98.6865 66.1989 98.3012 66.1989C87.7146 66.1989 79.1018 74.811 79.1018 85.3967C79.1018 85.6691 79.1079 85.9491 79.1194 86.2291C79.3429 91.4499 77.4775 96.4151 73.8681 100.209C70.2929 103.967 65.4857 106.056 60.3335 106.093C60.0863 106.095 59.8392 106.095 59.5912 106.091C47.1629 105.984 35.5701 101.048 26.9481 92.1915C18.3185 83.3276 13.689 71.5929 13.9141 59.1493C14.1338 47.0171 19.025 35.6454 27.6874 27.1288ZM32.6562 84.2188C32.6562 90.6808 37.9137 95.9375 44.375 95.9375C50.8371 95.9375 56.0938 90.6808 56.0938 84.2188C56.0938 77.7574 50.8371 72.5 44.375 72.5C37.9137 72.5 32.6562 77.7574 32.6562 84.2188ZM36.5625 84.2188C36.5625 79.9112 40.0674 76.4062 44.375 76.4062C48.6833 76.4062 52.1875 79.9112 52.1875 84.2188C52.1875 88.5271 48.6833 92.0312 44.375 92.0312C40.0674 92.0312 36.5625 88.5271 36.5625 84.2188ZM30.7031 71.7188C24.241 71.7188 18.9844 66.4621 18.9844 60C18.9844 53.5387 24.241 48.2812 30.7031 48.2812C37.1645 48.2812 42.4219 53.5387 42.4219 60C42.4219 66.4621 37.1645 71.7188 30.7031 71.7188ZM30.7031 52.1875C26.3956 52.1875 22.8906 55.6924 22.8906 60C22.8906 64.3083 26.3956 67.8125 30.7031 67.8125C35.0107 67.8125 38.5156 64.3083 38.5156 60C38.5156 55.6924 35.0107 52.1875 30.7031 52.1875ZM32.2656 35.7812C32.2656 42.2433 37.523 47.5 43.9844 47.5C50.4465 47.5 55.7031 42.2433 55.7031 35.7812C55.7031 29.3199 50.4465 24.0625 43.9844 24.0625C37.523 24.0625 32.2656 29.3199 32.2656 35.7812ZM36.1719 35.7812C36.1719 31.4737 39.6768 27.9688 43.9844 27.9688C48.2927 27.9688 51.7969 31.4737 51.7969 35.7812C51.7969 40.0896 48.2927 43.5938 43.9844 43.5938C39.6768 43.5938 36.1719 40.0896 36.1719 35.7812ZM73.6719 47.3047C67.2098 47.3047 61.9531 42.048 61.9531 35.5859C61.9531 29.1246 67.2098 23.8672 73.6719 23.8672C80.1332 23.8672 85.3906 29.1246 85.3906 35.5859C85.3906 42.048 80.1332 47.3047 73.6719 47.3047ZM73.6719 27.7734C69.3643 27.7734 65.8594 31.2784 65.8594 35.5859C65.8594 39.8943 69.3643 43.3984 73.6719 43.3984C77.9794 43.3984 81.4844 39.8943 81.4844 35.5859C81.4844 31.2784 77.9794 27.7734 73.6719 27.7734ZM76.4017 68.3984C75.9395 68.3984 75.4758 68.2338 75.105 67.8991C74.3025 67.1751 74.2309 65.9333 74.9459 65.1208C75.0479 65.0054 77.4904 62.2548 81.34 59.8912C86.5822 56.6729 91.9492 55.7104 96.8602 57.1076C97.8964 57.403 98.4994 58.4909 98.2078 59.5381C97.9162 60.5845 96.8389 61.1946 95.8034 60.8999C86.4231 58.2309 77.9404 67.6467 77.8559 67.7421C77.4706 68.1769 76.9369 68.3984 76.4017 68.3984ZM71.9141 73.4766C71.9141 74.5546 72.789 75.4297 73.8676 75.4297C74.9462 75.4297 75.8203 74.5546 75.8203 73.4766C75.8203 72.3978 74.9462 71.5234 73.8676 71.5234H73.866C72.7875 71.5234 71.9141 72.3978 71.9141 73.4766Z" fill="black"/>
<mask id="mask0" mask-type="alpha" maskUnits="userSpaceOnUse" x="10" y="10" width="100" height="100">
<path fill-rule="evenodd" clip-rule="evenodd" d="M59.5568 109.998C59.7063 109.999 59.8559 110 60.0054 110L60.1582 110C60.2255 110 60.2928 110 60.3602 109.999C66.5835 109.955 72.3856 107.434 76.6977 102.902C81.045 98.3324 83.291 92.3517 83.0225 86.0635C83.0126 85.8392 83.008 85.6142 83.008 85.3967C83.008 76.9647 89.8683 70.1051 98.3011 70.1051C98.6093 70.1051 98.9214 70.1151 99.2281 70.1334C102.03 70.3004 104.804 69.2987 106.841 67.3845C108.872 65.4749 109.994 62.8915 110 60.1183V60C110 46.6447 104.8 34.0883 95.3562 24.6446C85.9125 15.201 73.3561 10 60.0001 10C46.8058 10 34.3577 15.0941 24.9491 24.3433C15.5528 33.5809 10.2465 45.9169 10.0085 59.0791C9.76436 72.5725 14.7868 85.2998 24.1496 94.9167C33.504 104.525 46.0787 109.881 59.5568 109.998ZM27.6874 27.1288C36.3612 18.6021 47.8366 13.9062 60.0001 13.9062C72.3132 13.9062 83.8885 18.7013 92.5936 27.4072C101.3 36.1124 106.094 47.6877 106.094 60V60.103C106.09 61.7975 105.405 63.3722 104.164 64.538C102.89 65.7365 101.22 66.34 99.4608 66.234C99.0771 66.2111 98.6865 66.1989 98.3012 66.1989C87.7146 66.1989 79.1018 74.811 79.1018 85.3967C79.1018 85.6691 79.1079 85.9491 79.1194 86.2291C79.3429 91.4499 77.4775 96.4151 73.8681 100.209C70.2929 103.967 65.4857 106.056 60.3335 106.093C60.0863 106.095 59.8392 106.095 59.5912 106.091C47.1629 105.984 35.5701 101.048 26.9481 92.1915C18.3185 83.3276 13.689 71.5929 13.9141 59.1493C14.1338 47.0171 19.025 35.6454 27.6874 27.1288ZM32.6562 84.2188C32.6562 90.6808 37.9137 95.9375 44.375 95.9375C50.8371 95.9375 56.0938 90.6808 56.0938 84.2188C56.0938 77.7574 50.8371 72.5 44.375 72.5C37.9137 72.5 32.6562 77.7574 32.6562 84.2188ZM36.5625 84.2188C36.5625 79.9112 40.0674 76.4062 44.375 76.4062C48.6833 76.4062 52.1875 79.9112 52.1875 84.2188C52.1875 88.5271 48.6833 92.0312 44.375 92.0312C40.0674 92.0312 36.5625 88.5271 36.5625 84.2188ZM30.7031 71.7188C24.241 71.7188 18.9844 66.4621 18.9844 60C18.9844 53.5387 24.241 48.2812 30.7031 48.2812C37.1645 48.2812 42.4219 53.5387 42.4219 60C42.4219 66.4621 37.1645 71.7188 30.7031 71.7188ZM30.7031 52.1875C26.3956 52.1875 22.8906 55.6924 22.8906 60C22.8906 64.3083 26.3956 67.8125 30.7031 67.8125C35.0107 67.8125 38.5156 64.3083 38.5156 60C38.5156 55.6924 35.0107 52.1875 30.7031 52.1875ZM32.2656 35.7812C32.2656 42.2433 37.523 47.5 43.9844 47.5C50.4465 47.5 55.7031 42.2433 55.7031 35.7812C55.7031 29.3199 50.4465 24.0625 43.9844 24.0625C37.523 24.0625 32.2656 29.3199 32.2656 35.7812ZM36.1719 35.7812C36.1719 31.4737 39.6768 27.9688 43.9844 27.9688C48.2927 27.9688 51.7969 31.4737 51.7969 35.7812C51.7969 40.0896 48.2927 43.5938 43.9844 43.5938C39.6768 43.5938 36.1719 40.0896 36.1719 35.7812ZM73.6719 47.3047C67.2098 47.3047 61.9531 42.048 61.9531 35.5859C61.9531 29.1246 67.2098 23.8672 73.6719 23.8672C80.1332 23.8672 85.3906 29.1246 85.3906 35.5859C85.3906 42.048 80.1332 47.3047 73.6719 47.3047ZM73.6719 27.7734C69.3643 27.7734 65.8594 31.2784 65.8594 35.5859C65.8594 39.8943 69.3643 43.3984 73.6719 43.3984C77.9794 43.3984 81.4844 39.8943 81.4844 35.5859C81.4844 31.2784 77.9794 27.7734 73.6719 27.7734ZM76.4017 68.3984C75.9395 68.3984 75.4758 68.2338 75.105 67.8991C74.3025 67.1751 74.2309 65.9333 74.9459 65.1208C75.0479 65.0054 77.4904 62.2548 81.34 59.8912C86.5822 56.6729 91.9492 55.7104 96.8602 57.1076C97.8964 57.403 98.4994 58.4909 98.2078 59.5381C97.9162 60.5845 96.8389 61.1946 95.8034 60.8999C86.4231 58.2309 77.9404 67.6467 77.8559 67.7421C77.4706 68.1769 76.9369 68.3984 76.4017 68.3984ZM71.9141 73.4766C71.9141 74.5546 72.789 75.4297 73.8676 75.4297C74.9462 75.4297 75.8203 74.5546 75.8203 73.4766C75.8203 72.3978 74.9462 71.5234 73.8676 71.5234H73.866C72.7875 71.5234 71.9141 72.3978 71.9141 73.4766Z" fill="white"/>
</mask>
<g mask="url(#mask0)">
<rect width="120" height="120" fill="black"/>
</g>
</svg>
