<?xml version="1.0" encoding="utf-8"?>
<!-- Generator: Adobe Illustrator 25.0.0, SVG Export Plug-In . SVG Version: 6.00 Build 0)  -->
<svg version="1.1" id="Layer_1" xmlns="http://www.w3.org/2000/svg" xmlns:xlink="http://www.w3.org/1999/xlink" x="0px" y="0px"
	 viewBox="0 0 100 100" style="enable-background:new 0 0 100 100;" xml:space="preserve">
<style type="text/css">
	.st0{fill:#16C8C7;}
</style>
<path class="st0" d="M23.3,40.6c0.2,0.2,0.5,0.3,0.7,0.3c0.3,0,0.5-0.1,0.7-0.3c0.4-0.4,0.4-1,0-1.4l-2.5-2.5l2.5-2.5
	c0.4-0.4,0.4-1,0-1.4c-0.4-0.4-1-0.4-1.4,0L20.1,36c-0.2,0.2-0.3,0.4-0.3,0.7c0,0.3,0.1,0.5,0.3,0.7L23.3,40.6z"/>
<path class="st0" d="M33.4,36.7l-2.5,2.5c-0.4,0.4-0.4,1,0,1.4c0.2,0.2,0.5,0.3,0.7,0.3c0.3,0,0.5-0.1,0.7-0.3l3.2-3.2
	c0.4-0.4,0.4-1,0-1.4l-3.2-3.2c-0.4-0.4-1-0.4-1.4,0c-0.4,0.4-0.4,1,0,1.4L33.4,36.7z"/>
<path class="st0" d="M26.3,40.9c0.1,0,0.2,0.1,0.4,0.1c0.4,0,0.8-0.2,0.9-0.6l2.5-6.4c0.2-0.5-0.1-1.1-0.6-1.3
	c-0.5-0.2-1.1,0.1-1.3,0.6l-2.5,6.4C25.6,40.1,25.8,40.6,26.3,40.9z"/>
<path d="M21.4,46.9h6.8c0.6,0,1-0.5,1-1c0-0.6-0.5-1-1-1h-6.8c-0.6,0-1,0.5-1,1C20.4,46.4,20.9,46.9,21.4,46.9z"/>
<path d="M44,44.8H32c-0.6,0-1,0.5-1,1c0,0.6,0.5,1,1,1h12c0.6,0,1-0.5,1-1C45,45.3,44.6,44.8,44,44.8z"/>
<path d="M21.4,51.2h2.9c0.6,0,1-0.5,1-1c0-0.6-0.5-1-1-1h-2.9c-0.6,0-1,0.5-1,1C20.4,50.7,20.9,51.2,21.4,51.2z"/>
<path d="M40.3,49.1c-0.6,0-1,0.5-1,1c0,0.6,0.5,1,1,1h1.8c0.6,0,1-0.5,1-1c0-0.6-0.5-1-1-1H40.3z"/>
<path d="M37.6,50.1c0-0.6-0.5-1-1-1h-8.7c-0.6,0-1,0.5-1,1c0,0.6,0.5,1,1,1h8.7C37.2,51.2,37.6,50.7,37.6,50.1z"/>
<path d="M44.3,50.1c0,0.6,0.5,1,1,1h3.3c0.6,0,1-0.5,1-1c0-0.6-0.5-1-1-1h-3.3C44.7,49.1,44.3,49.6,44.3,50.1z"/>
<path d="M38.8,37.5h3.5c0.6,0,1-0.5,1-1c0-0.6-0.5-1-1-1h-3.5c-0.6,0-1,0.5-1,1C37.7,37.1,38.2,37.5,38.8,37.5z"/>
<path d="M46.2,37.5h21.4c0.6,0,1-0.5,1-1c0-0.6-0.5-1-1-1H46.2c-0.6,0-1,0.5-1,1C45.2,37.1,45.6,37.5,46.2,37.5z"/>
<path d="M64.3,40h-8.7c-0.6,0-1,0.5-1,1c0,0.6,0.5,1,1,1h8.7c0.6,0,1-0.5,1-1C65.3,40.4,64.9,40,64.3,40z"/>
<path d="M52.4,40h-3c-0.6,0-1,0.5-1,1c0,0.6,0.5,1,1,1h3c0.6,0,1-0.5,1-1C53.4,40.4,53,40,52.4,40z"/>
<path d="M38.8,42H46c0.6,0,1-0.5,1-1c0-0.6-0.5-1-1-1h-7.3c-0.6,0-1,0.5-1,1C37.7,41.6,38.2,42,38.8,42z"/>
<path d="M36.6,53.4h-6.8c-0.6,0-1,0.5-1,1c0,0.6,0.5,1,1,1h6.8c0.6,0,1-0.5,1-1C37.6,53.8,37.2,53.4,36.6,53.4z"/>
<path d="M26.7,53.4h-5.2c-0.6,0-1,0.5-1,1c0,0.6,0.5,1,1,1h5.2c0.6,0,1-0.5,1-1C27.7,53.8,27.2,53.4,26.7,53.4z"/>
<path d="M49,53.4h-8.9c-0.6,0-1,0.5-1,1c0,0.6,0.5,1,1,1H49c0.6,0,1-0.5,1-1C50,53.8,49.6,53.4,49,53.4z"/>
<path class="st0" d="M61.1,48.2h-4.9c-0.6,0-1,0.5-1,1c0,0.6,0.5,1,1,1h4.9c0.6,0,1-0.5,1-1C62.1,48.6,61.6,48.2,61.1,48.2z"/>
<path class="st0" d="M69.6,50.2h6.9c0.6,0,1-0.5,1-1c0-0.6-0.5-1-1-1h-6.9c-0.6,0-1,0.5-1,1C68.5,49.7,69,50.2,69.6,50.2z"/>
<path class="st0" d="M66.1,48.2h-1.6c-0.6,0-1,0.5-1,1c0,0.6,0.5,1,1,1h1.6c0.6,0,1-0.5,1-1C67.1,48.6,66.7,48.2,66.1,48.2z"/>
<path class="st0" d="M56.2,61.3h4.9c0.6,0,1-0.5,1-1c0-0.6-0.5-1-1-1h-4.9c-0.6,0-1,0.5-1,1C55.2,60.8,55.6,61.3,56.2,61.3z"/>
<path class="st0" d="M69.6,61.3h6.9c0.6,0,1-0.5,1-1c0-0.6-0.5-1-1-1h-6.9c-0.6,0-1,0.5-1,1C68.5,60.8,69,61.3,69.6,61.3z"/>
<path class="st0" d="M64.5,61.3h1.6c0.6,0,1-0.5,1-1c0-0.6-0.5-1-1-1h-1.6c-0.6,0-1,0.5-1,1C63.5,60.8,64,61.3,64.5,61.3z"/>
<path class="st0" d="M61.1,70.3h-4.9c-0.6,0-1,0.5-1,1s0.5,1,1,1h4.9c0.6,0,1-0.5,1-1S61.6,70.3,61.1,70.3z"/>
<path class="st0" d="M76.4,70.3h-6.9c-0.6,0-1,0.5-1,1s0.5,1,1,1h6.9c0.6,0,1-0.5,1-1S77,70.3,76.4,70.3z"/>
<path class="st0" d="M66.1,70.3h-1.6c-0.6,0-1,0.5-1,1s0.5,1,1,1h1.6c0.6,0,1-0.5,1-1S66.7,70.3,66.1,70.3z"/>
<path d="M80.2,15.3H19.8c-2.5,0-4.5,2-4.5,4.5v49.1c0,2.5,2,4.5,4.5,4.5h3.8c0.6,0,1-0.5,1-1c0-0.6-0.5-1-1-1h-3.8
	c-1.3,0-2.4-1.1-2.4-2.4v-3.9h37v1.8h-0.8c-1.1,0-2,0.9-2,2v2.5H29.8c-0.6,0-1,0.5-1,1c0,0.6,0.5,1,1,1h9.8v3.6h-3.1
	c-2,0-3.7,1.7-3.7,3.7V83c0,0.9,0.8,1.7,1.7,1.7h31c0.9,0,1.7-0.8,1.7-1.7v-2.2c0-2-1.7-3.7-3.7-3.7h-3.1v-1.3h18.8c1.1,0,2-0.9,2-2
	v-0.5c2-0.5,3.5-2.2,3.5-4.4l0.1-49.1C84.7,17.4,82.7,15.3,80.2,15.3z M53.6,62.7v-4.9h25.5v4.9H53.6z M56.4,55.8v-2.1h19.9v2.1
	H56.4z M76.3,64.7v2.1H56.4v-2.1H76.3z M41.6,73.4h10v0.4c0,1.1,0.9,2,2,2h4.8v1.3H41.6V73.4z M63.4,79.1c0.9,0,1.7,0.8,1.7,1.7v1.9
	H34.8v-1.9c0-0.9,0.8-1.7,1.7-1.7H63.4z M79.1,73.7H53.6v-4.9h25.5V73.7z M82.5,68.9c0,1-0.6,1.8-1.4,2.2v-2.3c0-1.1-0.9-2-2-2h-0.8
	v-1.8h4.2V68.9z M82.5,63.1h-1.5c0-0.1,0-5.3,0-5.3c0-1.1-0.9-2-2-2h-0.8v-2.1h0.8c1.1,0,2-0.9,2-2v-4.9c0-1.1-0.9-2-2-2h-5.7
	c-0.6,0-1,0.5-1,1c0,0.6,0.5,1,1,1h5.7v4.9H53.6v-4.9h13.5c0.6,0,1-0.5,1-1c0-0.6-0.5-1-1-1H53.5c-1.1,0-2,0.9-2,2v4.9
	c0,1.1,0.9,2,2,2h0.8v2.1h-0.8c-1.1,0-2,0.9-2,2c0,0,0,5.2,0,5.3H17.4V29.2h65.2V63.1z M82.5,27.1H17.5v-7.3c0-1.3,1.1-2.4,2.4-2.4
	h60.2c1.3,0,2.4,1.1,2.4,2.4V27.1z"/>
<path d="M22.8,19.2c-1.6,0-3,1.3-3,3c0,1.6,1.3,3,3,3s3-1.3,3-3C25.8,20.6,24.5,19.2,22.8,19.2z M22.8,23.2c-0.5,0-0.9-0.4-0.9-0.9
	c0-0.5,0.4-0.9,0.9-0.9c0.5,0,0.9,0.4,0.9,0.9C23.8,22.7,23.4,23.2,22.8,23.2z"/>
<path d="M30.4,19.2c-1.6,0-3,1.3-3,3c0,1.6,1.3,3,3,3c1.6,0,3-1.3,3-3C33.4,20.6,32,19.2,30.4,19.2z M30.4,23.2
	c-0.5,0-0.9-0.4-0.9-0.9c0-0.5,0.4-0.9,0.9-0.9c0.5,0,0.9,0.4,0.9,0.9C31.4,22.7,30.9,23.2,30.4,23.2z"/>
<path d="M38,19.2c-1.6,0-3,1.3-3,3c0,1.6,1.3,3,3,3s3-1.3,3-3C41,20.6,39.6,19.2,38,19.2z M38,23.2c-0.5,0-0.9-0.4-0.9-0.9
	c0-0.5,0.4-0.9,0.9-0.9c0.5,0,0.9,0.4,0.9,0.9C38.9,22.7,38.5,23.2,38,23.2z"/>
</svg>
